<svg width="205" height="174" viewBox="0 0 205 174" fill="none" xmlns="http://www.w3.org/2000/svg">
<path fill-rule="evenodd" clip-rule="evenodd" d="M146.944 22.5435C156.501 23.0329 164.097 27.863 171.693 33.2866C196.605 51.0973 204.937 78.7316 187.866 105.887C161.32 147.999 99.4879 175.56 51.5416 162.84C40.9232 160.037 26.5474 157.566 16.0107 143.877C6.20905 131.148 6.61745 116.016 11.1099 102.007C15.684 87.6438 24.5054 74.4242 31.5299 65.9266C62.2417 28.8517 123.747 -4.84446 179.371 12.9199C180.515 13.2621 181.658 12.6735 181.985 11.6052C182.312 10.5369 181.74 9.39139 180.678 9.04911C123.42 -9.2331 59.9543 25.1866 28.3441 63.3421C19.6043 73.9381 8.1697 91.626 4.90249 109.927C2.69712 122.435 4.24873 135.221 12.7435 146.344C23.9337 160.926 39.208 163.782 50.4799 166.768C99.9781 179.905 163.933 151.538 191.296 108.046C209.674 78.8584 200.853 49.1282 174.062 29.9842C165.894 24.0996 157.562 19.0142 147.189 18.4841C146.045 18.4264 145.065 19.289 145.065 20.4093C144.984 21.5297 145.882 22.4858 146.944 22.5435Z" fill="#0B73DA" fill-opacity="0.7"/>
<path d="M146.835 24.5406L146.842 24.5409C155.764 24.9978 162.94 29.4947 170.53 34.9136C182.68 43.5998 190.653 54.5833 193.581 66.5575C196.501 78.5029 194.454 91.6498 186.173 104.823C173.154 125.475 151.409 142.651 126.944 153.086C102.476 163.522 75.4946 167.125 52.0544 160.907L52.0521 160.906C51.0296 160.636 49.9822 160.371 48.9151 160.101C38.6993 157.512 26.6865 154.468 17.5956 142.657L17.5953 142.656C8.35209 130.653 8.62824 116.296 13.0143 102.618L13.0156 102.614C17.4853 88.5785 26.1422 75.5833 33.0714 67.2009C48.2205 48.9136 71.0086 31.4185 96.8736 20.7063C122.734 9.99602 151.518 6.12407 178.763 14.8251L178.78 14.8306L178.798 14.8359C180.912 15.4688 183.225 14.3911 183.898 12.1901C184.532 10.1172 183.433 7.83595 181.291 7.14555L181.286 7.14387C152.093 -2.1774 121.416 1.96592 94.1326 13.1817C66.8551 24.3951 42.8183 42.7358 26.8039 62.0661L26.8012 62.0695C17.9684 72.7782 6.28847 90.7835 2.93361 109.575L2.93287 109.58C0.657253 122.486 2.23622 135.881 11.154 147.558L11.1568 147.562C21.8581 161.507 36.2043 165.174 47.0766 167.953C48.0712 168.208 49.0368 168.455 49.9679 168.701C75.2487 175.411 104.075 171.497 129.972 160.484C155.872 149.468 179.052 131.263 192.989 109.111C202.431 94.1152 204.96 78.837 201.562 64.7788C198.17 50.749 188.93 38.1514 175.228 28.3591C167.02 22.4459 158.282 17.0484 147.291 16.4867L147.29 16.4867C145.136 16.378 143.107 18.0032 143.066 20.3368C142.943 22.5789 144.718 24.4254 146.835 24.5406Z" stroke="#0B73DA" stroke-opacity="0.7" stroke-width="4"/>
</svg>
